<?xml version="1.0" encoding="utf-8"?>
<!-- Generator: Adobe Adobe Illustrator 24.2.0, SVG Export Plug-In . SVG Version: 6.00 Build 0)  -->
<svg version="1.1" id="レイヤー_1" xmlns="http://www.w3.org/2000/svg" xmlns:xlink="http://www.w3.org/1999/xlink" x="0px"
	 y="0px" viewBox="0 0 320 320" style="enable-background:new 0 0 320 320;" xml:space="preserve">
<style type="text/css">
	.st0{stroke:#000000;stroke-miterlimit:10;}
</style>
<g>
	<g>
		<g>
			<path class="st0" d="M29.33,196.65c0.55,0,1-0.44,1-0.99v-89.69l-0.35-0.18h-1.65v89.87C28.33,196.2,28.77,196.65,29.33,196.65z"
				/>
			<polygon class="st0" points="116.96,157.35 76.97,136.29 76.97,191.78 116.66,211.5 			"/>
			<path class="st0" d="M124.18,160.63v53.94l34.58,71.51l73.27-29.33c7.74-3.58,12.69-11.34,12.69-19.86v-99.1l-84,43.12
				L124.18,160.63z M212.28,172.79c12.7,0,23,15,23,33.5c0,18.5-10.3,33.5-23,33.5c-12.7,0-23-15-23-33.5
				C189.28,187.79,199.58,172.79,212.28,172.79z"/>
			<path class="st0" d="M76.97,199.33v40.06c0,7.58,5.63,16.4,12.51,19.59l60.27,27.11c-0.45-0.79-32.79-66.23-32.79-66.23
				L76.97,199.33z"/>
			<path class="st0" d="M220.39,62.2l-58.97-28.18c-0.28-0.14-0.61-0.14-0.9,0L29.97,99.29l131-1.75L220.39,62.2z"/>
			<polygon class="st0" points="300.92,99.79 228.54,66.6 173.28,99.29 			"/>
			<polygon class="st0" points="230.54,137.29 166.22,105.79 30.33,105.79 30.33,105.97 160.97,171.79 			"/>
			<polygon class="st0" points="238.28,132.47 301.17,100.83 173.53,100.29 			"/>
			<path class="st0" d="M212.28,178.79c-9.94,0-18,12.31-18,27.5c0,4.93,0.85,9.56,2.34,13.57l29.67-30.84
				C222.99,182.78,217.94,178.79,212.28,178.79z"/>
			<path class="st0" d="M212.54,235.11c9.94,0,18-12.31,18-27.5c0-4.93-0.85-9.56-2.34-13.57l-29.67,30.84
				C201.83,231.12,206.88,235.11,212.54,235.11z"/>
			<rect x="24.15" y="197.01" class="st0" width="10.36" height="48.46"/>
			<polygon class="st0" points="35.45,223.59 41.67,245.47 50.21,245.47 35.49,199.21 			"/>
			<polygon class="st0" points="8.11,245.47 17.51,245.47 23.4,222.99 23.25,199.21 			"/>
		</g>
	</g>
</g>
<g id="レイヤー_2">
</g>
</svg>
